<svg width="216" height="213" viewBox="0 0 216 213" fill="none" xmlns="http://www.w3.org/2000/svg">
<path d="M178.246 143.236C161.682 161.039 143.855 177.119 126.007 189.422C103.065 205.104 78.8607 214.403 52.9735 212.724C27.485 211.024 -1.39165 197.042 1.15499 167.82C4.56527 113.594 87.3642 105.554 133.226 93.2507C208.828 73.3494 195.652 5.16398 127.712 5.16398C99.5438 5.16398 68.0984 20.3826 53.9479 45.3198C49.6961 52.8077 40.1961 55.414 33.0876 50.5547C25.0048 45.0327 24.6284 33.0831 32.4897 27.2519C58.8862 7.72618 95.0706 0.923096 127.712 0.923096C155.747 0.923096 213.921 6.86475 215.626 42.8681C216.047 56.8497 208.828 67.4299 191.843 76.751C175.699 85.6524 150.654 93.6924 115.399 102.594C10.9208 130.535 32.1575 247.027 123.46 185.6C156.389 163.247 185.554 128.812 201.852 107.564C206.325 101.732 215.604 104.935 215.604 112.268V212.702H178.246V143.236Z" fill="#0D0D0D"/>
</svg>
